<?xml version="1.0" encoding="utf-8"?>
<!-- Generator: Adobe Illustrator 24.0.0, SVG Export Plug-In . SVG Version: 6.00 Build 0)  -->
<svg version="1.1" id="Layer_1" xmlns="http://www.w3.org/2000/svg" xmlns:xlink="http://www.w3.org/1999/xlink" x="0px" y="0px"
	 viewBox="0 0 182.43 182.45" style="enable-background:new 0 0 182.43 182.45;" xml:space="preserve">
<style type="text/css">
	.st0{fill-rule:evenodd;clip-rule:evenodd;fill:#788184;}
</style>
<path class="st0" d="M59.09,107.22l16.13,16.13l48.12-48.13L107.22,59.1L59.09,107.22z M139.22,91.1l-68.89,68.89h32.24l52.77-52.77
	L139.22,91.1z M35.35,163.22l24-24L3.29,83.16c-4.38-4.38-4.38-11.49,0-15.87L67.15,3.42C69.2,1.31,72.05,0,75.22,0h64
	c6.2,0,11.23,5.03,11.23,11.23c0,3.26-1.39,6.19-3.61,8.24l0.01,0.01l-23.75,23.75l56.06,56.06c4.38,4.38,4.38,11.49,0,15.87l-64,64
	c-2.19,2.19-5.06,3.29-7.94,3.29v0h-64c-6.2,0-11.23-5.03-11.23-11.23C31.99,168.09,33.28,165.25,35.35,163.22L35.35,163.22z
	 M43.21,91.34l68.89-68.89H79.86L27.09,75.22L43.21,91.34z"/>
</svg>
